<?xml version="1.0" standalone="no"?>
<!DOCTYPE svg PUBLIC "-//W3C//DTD SVG 1.1//EN" "http://www.w3.org/Graphics/SVG/1.1/DTD/svg11.dtd">
<svg version="1.1" xmlns="http://www.w3.org/2000/svg" viewBox="0 0 148.4880055427551 21.525070667266846" width="445.4640166282653" height="64.57521200180054"><!-- svg-source:excalidraw --><metadata></metadata><defs><style class="style-fonts">
      </style></defs><g stroke-linecap="round"><g transform="translate(10.393535199761345 11.862698349356663) rotate(0 63.66015625 -0.41796875)"><path d="M-0.39 -0.34 C20.82 -0.54, 106.87 -1.66, 128.09 -1.86 M1.6 -1.56 C22.65 -1.59, 106.82 -1.02, 127.55 -0.86" stroke="#1e1e1e" stroke-width="4" fill="none"></path></g><g transform="translate(10.393535199761345 11.862698349356663) rotate(0 63.66015625 -0.41796875)"><path d="M104 7.52 C112.17 5.79, 119.72 0.79, 127.55 -0.86 M104 7.52 C109.37 5.65, 114.97 3.43, 127.55 -0.86" stroke="#1e1e1e" stroke-width="4" fill="none"></path></g><g transform="translate(10.393535199761345 11.862698349356663) rotate(0 63.66015625 -0.41796875)"><path d="M104.12 -9.58 C112.16 -5, 119.66 -3.69, 127.55 -0.86 M104.12 -9.58 C109.61 -7.34, 115.17 -5.45, 127.55 -0.86" stroke="#1e1e1e" stroke-width="4" fill="none"></path></g></g><mask></mask></svg>